<?xml version="1.0" encoding="UTF-8" standalone="no"?>
<!-- Created with Inkscape (http://www.inkscape.org/) -->
<svg
   xmlns:svg="http://www.w3.org/2000/svg"
   xmlns="http://www.w3.org/2000/svg"
   version="1.0"
   width="817.33929"
   height="812.9917"
   id="svg2">
  <defs
     id="defs4" />
  <g
     transform="translate(31.258011,-104.20233)"
     id="layer1">
    <rect
       width="817.33929"
       height="812.9917"
       x="-31.258011"
       y="104.20233"
       style="opacity:1;fill:#000000;fill-opacity:1;stroke:none;stroke-width:6;stroke-linecap:round;stroke-linejoin:miter;stroke-miterlimit:4;stroke-dasharray:none;stroke-opacity:1"
       id="rect9095" />
    <path
       d="M 255.96256,265.68877 C 250.44992,265.59759 251.97905,273.31019 252.79401,280.47534 C 254.36285,294.26896 257.80648,313.97175 241.6454,338.21337 C 233.68905,350.14788 228.4129,358.45599 224.28224,365.70635 C 225.69331,366.60124 229.13734,367.30258 238.30082,363.50309 C 247.7552,359.58297 269.85611,355.66621 280.72419,356.10981 C 292.02333,356.571 339.54284,358.87337 354.07027,378.93511 C 354.07027,378.93511 355.83116,381.92763 367.44859,381.92763 C 379.06607,381.92763 380.82692,378.93511 380.82692,378.93511 C 395.35435,358.87337 442.87384,356.571 454.17299,356.10981 C 465.04107,355.66621 487.14197,359.58297 496.59636,363.50309 C 505.71167,367.28262 510.91164,364.07975 512.04448,363.27385 C 508.21188,355.84793 503.02493,347.54962 495.2468,336.62909 C 478.34457,312.89829 480.24097,294.26896 481.80979,280.47534 C 482.8964,270.9218 485.01402,261.48831 471.30664,271.4391 C 441.17681,293.31164 369.91302,289.21819 369.91302,289.21819 C 369.91302,289.21819 300.22635,288.92349 264.11864,268.68129 C 260.42487,266.61055 257.80011,265.71917 255.96256,265.68877 z M 514.67402,368.74089 C 512.32858,370.33468 507.64938,372.65785 507.51026,377.52686 C 507.31812,384.25164 511.37582,418.43507 484.86099,428.81044 C 458.34619,439.18579 410.47127,443.03426 397.02173,428.04764 C 383.57219,413.06099 389.17035,395.36463 368.03536,395.36463 C 346.89949,395.36463 352.49854,414.99732 339.04899,429.98398 C 325.59945,444.97063 277.72454,441.12212 251.20973,430.74678 C 224.69489,420.37141 228.75259,386.18798 228.56046,379.4632 C 228.42563,374.74408 223.45929,373.06926 221.07684,371.40782 C 212.83023,386.79208 213.60367,392.78703 215.41685,408.74295 C 218.15228,432.81476 221.4188,476.62493 237.83141,488.66084 C 254.24399,500.69673 247.66465,516.55433 261.88892,537.89072 C 276.11317,559.22711 307.87299,601.90718 368.85684,601.90718 C 429.8407,601.90718 458.49063,559.22709 472.71488,537.89072 C 486.93913,516.55435 480.35981,500.69673 496.77239,488.66084 C 513.185,476.62493 516.45154,432.81474 519.18696,408.74295 C 520.9639,393.1058 521.77833,384.07587 514.67402,368.74089 z "
       style="color:#000000;fill:#d0d0d0;fill-opacity:1;fill-rule:evenodd;stroke:#d0d0d0;stroke-width:1.87765956px;stroke-linecap:butt;stroke-linejoin:miter;marker:none;marker-start:none;marker-mid:none;marker-end:none;stroke-miterlimit:4;stroke-dashoffset:0;stroke-opacity:1;visibility:visible;display:inline;overflow:visible;enable-background:accumulate"
       id="path3198" />
    <path
       d="M 341.39607,467.27448 C 338.09959,467.04954 337.12054,467.0867 334.70396,468.15779 C 332.78536,469.00814 332.21052,469.96917 331.94543,472.05444 C 331.68032,474.13971 332.59824,474.97636 334.32625,476.17327 C 336.05426,477.37017 338.30491,477.50547 340.16385,476.52419 C 340.16385,476.52419 340.47515,476.34934 342.15887,476.23081 C 343.84258,476.11227 346.44277,477.43908 349.84554,478.92048 C 355.52022,481.39095 359.92218,483.49727 367.62462,483.49727 C 375.32706,483.49727 379.72903,481.39097 385.40371,478.92048 C 388.8065,477.43908 391.2708,475.84055 392.95451,475.95909 C 394.63823,476.07763 394.94953,476.25247 394.94953,476.25247 C 396.78851,477.10951 398.94628,476.9115 400.59856,475.73409 C 402.25084,474.55667 403.27824,474.07621 403.06847,472.05822 C 402.85868,470.0402 401.56328,469.14059 399.72087,468.29366 C 397.85975,467.43812 397.14917,467.23483 393.85318,467.27448 C 390.54927,467.31423 386.05885,469.08393 380.94427,471.31057 C 374.95934,473.91612 373.61314,474.94853 367.62462,474.94853 C 361.63611,474.94853 360.3486,473.91612 354.36365,471.31057 C 349.24908,469.08395 344.96377,467.51794 341.39607,467.27448 z "
       style="color:#000000;fill:#000000;fill-opacity:1;fill-rule:evenodd;stroke:none;stroke-width:6;stroke-linecap:round;stroke-linejoin:miter;marker:none;stroke-miterlimit:4;stroke-dashoffset:0;stroke-opacity:1;visibility:visible;display:inline;overflow:visible;enable-background:accumulate"
       id="path3240" />
    <path
       d="M 367.38992,514.30263 C 345.34246,514.30263 322.57343,519.30229 321.68064,519.52759 C 320.19866,519.90158 318.8214,520.43602 318.57077,521.40525 C 318.51883,521.60614 318.61499,522.22 318.97946,522.80335 C 319.81889,524.14689 321.97403,523.92563 321.97403,523.92563 C 321.97403,523.92563 345.50163,520.87443 367.38992,520.87443 C 389.27819,520.87443 412.74713,523.92563 412.74713,523.92563 C 413.91453,524.09096 414.9193,523.72433 415.75302,522.89061 C 416.20234,522.44128 416.26002,521.78024 416.17773,521.47313 C 415.87257,520.33425 414.79669,519.60087 413.62728,519.45042 C 413.62728,519.45042 389.88512,514.30263 367.38992,514.30263 z "
       style="color:#000000;fill:#000000;fill-opacity:1;fill-rule:evenodd;stroke:none;stroke-width:3.5;stroke-linecap:round;stroke-linejoin:miter;marker:none;stroke-miterlimit:4;stroke-dasharray:none;stroke-dashoffset:0;stroke-opacity:1;visibility:visible;display:inline;overflow:visible;enable-background:accumulate"
       id="path4221" />
    <g
       transform="matrix(1.8776595,0,0,1.8776595,60.040518,30.277205)"
       style="fill:#ffffff;fill-opacity:1;stroke:#000000;stroke-opacity:1"
       id="g6170">
      <path
         d="M 102.53223,320.92469 C 102.53223,320.92469 116.44878,341.79951 125.04429,366.35813 C 125.04429,366.35813 127.09085,370.04192 129.34205,366.56279 C 131.59326,363.08365 137.11895,350.19037 138.14222,347.93917 C 139.1655,345.68796 145.91912,337.50176 151.0355,335.25055 C 156.15188,332.99934 155.64024,328.90624 151.64946,327.47365 C 147.65869,326.04107 119.38826,315.19394 104.19339,303.90633 C 104.19339,303.90633 101.87799,301.66794 101.87798,299.42023 C 101.87798,297.17718 102.31212,294.28291 99.562573,294.64469 C 97.630961,294.89885 90.807434,302.24213 102.53223,320.92469 z "
         style="opacity:1;color:#000000;fill:#ffffff;fill-opacity:1;fill-rule:evenodd;stroke:#000000;stroke-width:1px;stroke-linecap:butt;stroke-linejoin:miter;marker:none;marker-start:none;marker-mid:none;marker-end:none;stroke-miterlimit:4;stroke-dasharray:none;stroke-dashoffset:0;stroke-opacity:1;visibility:visible;display:inline;overflow:visible;enable-background:accumulate"
         id="path6166" />
      <path
         d="M 143.55534,352.52991 C 143.55534,352.52991 148.90972,354.41118 156.00066,364.5411 C 156.00066,364.5411 142.25292,393.77313 141.52936,414.46709 C 141.52936,414.46709 130.82059,385.37977 128.21576,370.04019 C 128.21576,370.04019 134.43842,353.39819 143.55534,352.52991 z "
         style="opacity:1;color:#000000;fill:#ffffff;fill-opacity:1;fill-rule:evenodd;stroke:#000000;stroke-width:1px;stroke-linecap:butt;stroke-linejoin:miter;marker:none;marker-start:none;marker-mid:none;marker-end:none;stroke-miterlimit:4;stroke-dasharray:none;stroke-dashoffset:0;stroke-opacity:1;visibility:visible;display:inline;overflow:visible;enable-background:accumulate"
         id="path6168" />
    </g>
    <path
       d="M 486.83267,622.81079 C 486.83267,622.81079 443.58365,660.91971 433.69381,715.45582 C 433.69381,715.45582 429.85107,722.37273 425.62408,715.8401 C 421.39708,709.30746 411.56514,687.81549 409.64379,683.5885 C 407.72242,679.3615 387.70493,663.44715 378.09811,659.22015 C 368.4913,654.99314 369.45198,647.30769 376.94531,644.61777 C 384.43861,641.92788 460.3455,621.01723 489.96317,596.56227 C 489.96317,596.56227 494.31071,592.76692 492.68039,583.79135 C 491.92769,579.64747 491.86523,574.14521 497.02794,574.82451 C 500.65485,575.30174 515.36917,596.69814 486.83267,622.81079 z "
       style="color:#000000;fill:#ffffff;fill-opacity:1;fill-rule:evenodd;stroke:#000000;stroke-width:1.87765956px;stroke-linecap:butt;stroke-linejoin:miter;marker:none;marker-start:none;marker-mid:none;marker-end:none;stroke-miterlimit:4;stroke-dasharray:none;stroke-dashoffset:0;stroke-opacity:1;visibility:visible;display:inline;overflow:visible;enable-background:accumulate"
       id="path6176" />
    <path
       d="M 398.66463,692.20835 C 398.66463,692.20835 379.64409,701.99034 377.74204,725.63015 C 377.74204,725.63015 414.96793,744.10722 416.32653,782.96343 C 416.32653,782.96343 422.57615,753.8892 427.46714,725.0867 C 427.46714,725.0867 415.7831,693.83869 398.66463,692.20835 z "
       style="color:#000000;fill:#ffffff;fill-opacity:1;fill-rule:evenodd;stroke:#000000;stroke-width:1.87765956px;stroke-linecap:butt;stroke-linejoin:miter;marker:none;marker-start:none;marker-mid:none;marker-end:none;stroke-miterlimit:4;stroke-dasharray:none;stroke-dashoffset:0;stroke-opacity:1;visibility:visible;display:inline;overflow:visible;enable-background:accumulate"
       id="path6178" />
    <path
       d="M 359.46854,165.9381 C 322.20372,165.9381 298.1332,169.04629 280.02007,174.62228 C 261.90695,180.19829 249.99149,188.32272 237.65538,197.50625 C 223.47833,208.06028 216.13839,226.61766 211.7202,242.39405 C 207.302,258.17045 206.02854,271.61513 206.02854,271.61513 C 205.73688,274.72613 208.02242,277.48454 211.13343,277.7762 C 214.24443,278.06786 217.00285,275.78231 217.29451,272.67131 C 217.29451,272.67131 218.45644,260.15322 222.57542,245.44525 C 226.69441,230.73728 233.97838,214.25952 244.34454,206.54249 C 256.46339,197.52069 266.83325,190.44924 283.36465,185.36014 C 299.89605,180.27107 322.82502,177.20406 359.46854,177.20406 C 361.5,177.23279 363.38954,176.16549 364.41366,174.41082 C 365.43777,172.65616 365.43777,170.486 364.41366,168.73135 C 363.38954,166.97669 361.5,165.90938 359.46854,165.9381 z "
       style="opacity:1;color:#000000;fill:#7a7a7a;fill-opacity:1;fill-rule:evenodd;stroke:none;stroke-width:6;stroke-linecap:round;stroke-linejoin:miter;marker:none;stroke-miterlimit:4;stroke-dasharray:none;stroke-dashoffset:0;stroke-opacity:1;visibility:visible;display:inline;overflow:visible;enable-background:accumulate"
       id="path6182" />
    <path
       d="M 496.65504,203.37394 C 494.56387,203.47075 492.69885,204.71911 491.81222,206.61549 C 490.92561,208.51186 491.16364,210.74349 492.43031,212.41018 C 492.43031,212.41018 517.95474,248.06182 517.95474,284.05462 C 517.95474,322.63914 517.95474,334.63408 517.95474,334.63408 C 517.92601,336.66554 518.99333,338.55508 520.74799,339.57919 C 522.50264,340.60331 524.6728,340.60331 526.42745,339.57919 C 528.18211,338.55508 529.24943,336.66554 529.2207,334.63408 C 529.2207,334.63408 529.2207,322.63914 529.2207,284.05462 C 529.2207,242.87843 501.52522,205.77969 501.52522,205.77969 C 500.42118,204.19639 498.58338,203.28856 496.65504,203.37394 z "
       style="opacity:1;color:#000000;fill:#7a7a7a;fill-opacity:1;fill-rule:evenodd;stroke:none;stroke-width:6;stroke-linecap:round;stroke-linejoin:miter;marker:none;stroke-miterlimit:4;stroke-dasharray:none;stroke-dashoffset:0;stroke-opacity:1;visibility:visible;display:inline;overflow:visible;enable-background:accumulate"
       id="path6184" />
  </g>
</svg>
